<?xml version="1.0" encoding="UTF-8"?>
<svg width="1200pt" height="1200pt" version="1.1" viewBox="0 0 1200 1200" xmlns="http://www.w3.org/2000/svg">
 <path d="m382.6 545.29c-0.5625-15.141 11.344-27.844 26.438-28.406 15.141-0.5625 27.844 11.297 28.406 26.438l15.469 425.58c0.5625 15.141-11.344 27.844-26.438 28.406-15.141 0.5625-27.844-11.297-28.406-26.438zm31.922-413.26v-92.109c0-15.188 12.328-27.562 27.562-27.562h308.53c15.234 0 27.562 12.328 27.562 27.562v92.109h304.6c15.188 0 27.562 12.328 27.562 27.562v194.53c0 15.188-12.328 27.562-27.562 27.562h-42.281l-66.234 780.61c-1.1719 14.391-13.266 25.312-27.422 25.266l-693.56 0.046876c-14.719 0-26.766-11.578-27.516-26.156l-66.188-779.72h-42.281c-15.188 0-27.562-12.328-27.562-27.562v-194.53c0-15.188 12.328-27.562 27.562-27.562h297.24zm308.53 0v-64.594h-253.45v64.594zm-508.26 249.66 63.703 750.84h642.98l63.703-750.84zm840.37-194.53h-910.36v139.45h910.36zm-482.72 357.14c0-15.188 12.328-27.562 27.562-27.562 15.188 0 27.562 12.328 27.562 27.562v425.58c0 15.234-12.328 27.562-27.562 27.562-15.188 0-27.562-12.328-27.562-27.562zm190.03-0.98438c0.5625-15.141 13.266-27 28.406-26.438s27 13.266 26.438 28.406l-15.469 425.58c-0.5625 15.141-13.266 27-28.406 26.438s-27-13.266-26.438-28.406z"/>
</svg>
