<?xml version="1.0" encoding="UTF-8"?>
<svg width="1200pt" height="1200pt" version="1.1" viewBox="0 0 1200 1200" xmlns="http://www.w3.org/2000/svg">
 <path d="m180 863.76v62.25c0 84.93 69.09 153.99 153.99 153.99h350.01c46.32 0 84-37.68 84-84 0-40.648-12.719-78.359-34.352-109.41 50.488-7.2305 92.219-41.852 109.62-88.289 25.078 25.711 60.059 41.73 98.73 41.73 76.078 0 138-61.922 138-138v-312.03c0-76.078-61.891-138-138-138-15.449 0-32.371 2.6094-48.871 7.5312-20.398 6.0898-41.941-0.35938-53.578-16.078-28.59-38.555-77.879-63.453-125.55-63.453-19.078 0-39.09 3.9297-57.84 11.34-18.512 7.3203-40.262 0.92969-54.059-15.898-28.473-34.711-71.883-55.441-116.1-55.441s-87.629 20.73-116.1 55.441c-13.801 16.859-35.551 23.219-54.059 15.898-18.75-7.4102-38.762-11.34-57.84-11.34-76.109 0-138 61.922-138 138v432c0 47.16 23.789 88.859 60 113.76zm504 168.24h-350.01c-58.441 0-105.99-47.551-105.99-105.99v-41.312c9.6602 2.1602 19.711 3.3281 30 3.3281 47.309 0 89.129-23.941 114-60.328 24.871 36.391 66.691 60.328 114 60.328 35.699 0 68.25-13.621 92.789-35.941 78.121 1.5 141.21 65.461 141.21 143.94 0 19.832-16.141 35.973-36 35.973zm-516-714c0-49.621 40.379-90 90-90 13.078 0 26.969 2.7617 40.199 7.9805 38.012 15.059 81.75 2.9414 108.84-30.09 19.141-23.371 49.41-37.891 78.961-37.891s59.82 14.52 78.961 37.891c27.09 33.059 70.828 45.148 108.84 30.09 13.199-5.2188 27.09-7.9805 40.199-7.9805 33 0 67.141 17.281 87 44.07 23.641 31.859 66.18 45.328 105.84 33.48 12.121-3.6289 24.27-5.5195 35.16-5.5195 49.621 0 90 40.379 90 90v312c0 49.621-40.379 90-90 90s-90-40.379-90-90v-174c0-13.262-10.738-24-24-24s-24 10.738-24 24v222c0 49.621-40.379 90-90 90s-90-40.379-90-90v-222c0-13.262-10.738-24-24-24s-24 10.738-24 24v222c0 49.621-40.379 90-90 90s-90-40.379-90-90v-222c0-13.262-10.738-24-24-24s-24 10.738-24 24v222c0 49.621-40.379 90-90 90s-90-40.379-90-90z"/>
</svg>
