<?xml version="1.0" encoding="UTF-8"?>
<svg width="1200pt" height="1200pt" version="1.1" viewBox="0 0 1200 1200" xmlns="http://www.w3.org/2000/svg">
 <path d="m600 112.5c-129.28 0-253.31 51.375-344.72 142.78-91.406 91.406-142.78 215.44-142.78 344.72 0 129.29 51.375 253.31 142.78 344.72 91.406 91.406 215.44 142.78 344.72 142.78 129.29 0 253.31-51.375 344.72-142.78 91.406-91.406 142.78-215.44 142.78-344.72-0.14062-129.24-51.516-253.18-142.92-344.58-91.406-91.406-215.34-142.78-344.58-142.92zm0 900c-109.41 0-214.31-43.453-291.71-120.79-77.344-77.391-120.79-182.29-120.79-291.71s43.453-214.31 120.79-291.71c77.391-77.344 182.29-120.79 291.71-120.79s214.31 43.453 291.71 120.79c77.344 77.391 120.79 182.29 120.79 291.71-0.14062 109.36-43.641 214.22-120.98 291.52-77.297 77.344-182.16 120.84-291.52 120.98zm224.02-591.52c15.797 13.359 18.047 36.938 4.9688 53.016l-249.98 300c-6.9844 8.0156-16.875 12.891-27.516 13.5-9.9375 0-19.453-3.9844-26.484-11.016l-150-150c-13.781-14.766-13.359-37.781 0.9375-52.078 14.25-14.25 37.266-14.672 52.078-0.89062l121.97 120.98 223.5-268.5c13.125-14.297 34.875-16.453 50.531-5.0156z"/>
</svg>
