<?xml version="1.0" encoding="UTF-8"?>
<svg width="1200pt" height="1200pt" version="1.1" viewBox="0 0 1200 1200" xmlns="http://www.w3.org/2000/svg">
 <path d="m1009.5 717.37-79.125-118.78c-7.3594-11.062-22.266-14.016-33.281-6.6562l-52.688 35.062-197.72-452.48c-3.0469-6.9844-9.2344-12.094-16.688-13.781l-369-83.578c-6.6562-1.5-13.594-0.14062-19.125 3.7969-5.5781 3.8906-9.1875 9.9844-9.9844 16.734l-45.234 375.98c-0.84375 6.9844 1.4062 13.969 6.1875 19.125l324.42 352.03-54.75 36.469c-5.2969 3.5156-8.9531 9.0469-10.219 15.234-1.2656 6.2344 0.046875 12.75 3.5625 18.047l79.125 118.78c4.6406 6.9375 12.234 10.688 20.016 10.688 4.5938 0 9.1875-1.3125 13.266-4.0312l140.34-93.469 110.62 166.13c4.6406 6.9375 12.234 10.688 20.016 10.688 4.5938 0 9.1875-1.3125 13.266-4.0312l118.78-79.125c5.2969-3.5156 8.9531-9.0469 10.219-15.234 1.2656-6.2344-0.046876-12.75-3.5625-18.047l-110.62-166.13 135.52-90.234c5.2969-3.5156 8.9531-9.0469 10.219-15.234 1.2656-6.2344-0.046874-12.75-3.5625-18.047zm-454.22 98.016-319.74-346.97 40.734-338.58 331.26 75 196.26 449.11-100.22 66.703-212.26-313.31c-7.4531-10.969-22.359-13.875-33.328-6.4219s-13.828 22.359-6.4219 33.328l212.02 312.98-106.31 70.781c-0.65625-0.9375-1.2656-1.875-2.0625-2.7188zm369.37 198.28-78.844 52.5-97.312-146.16 78.844-52.5zm-363.14-26.859-52.5-78.844 394.69-262.82 52.5 78.844z"/>
</svg>
